/* XPM */
static const char *icon_xpm[] = {
"32 32 1011 2",
"  	c #030303",
". 	c #000000",
"+ 	c #120A06",
"@ 	c #291915",
"# 	c #1C140E",
"$ 	c #1D1D11",
"% 	c #1A1212",
"& 	c #170F07",
"* 	c #1F170E",
"= 	c #211910",
"- 	c #0E0B07",
"; 	c #18140C",
"> 	c #1A180D",
", 	c #1B130D",
"' 	c #150E08",
") 	c #241D0F",
"! 	c #1F140B",
"~ 	c #19110A",
"{ 	c #120B09",
"] 	c #0F0908",
"^ 	c #0D0806",
"/ 	c #211B11",
"( 	c #251F13",
"_ 	c #1C1409",
": 	c #1C160B",
"< 	c #241C10",
"[ 	c #1D1610",
"} 	c #291A12",
"| 	c #19100A",
"1 	c #030502",
"2 	c #060504",
"3 	c #694E34",
"4 	c #C5A168",
"5 	c #675130",
"6 	c #85583B",
"7 	c #974841",
"8 	c #BF8261",
"9 	c #B37D63",
"0 	c #7F3D41",
"a 	c #7B4849",
"b 	c #E8A18D",
"c 	c #7F313A",
"d 	c #6B2337",
"e 	c #583233",
"f 	c #A27A63",
"g 	c #6A3E42",
"h 	c #81514F",
"i 	c #B0886B",
"j 	c #E6AE8D",
"k 	c #EFB58D",
"l 	c #EBB58C",
"m 	c #D7A17F",
"n 	c #57242E",
"o 	c #3F0F21",
"p 	c #6B3239",
"q 	c #7B3C44",
"r 	c #7B3140",
"s 	c #573C2D",
"t 	c #423322",
"u 	c #CCA666",
"v 	c #856145",
"w 	c #0B0806",
"x 	c #453226",
"y 	c #3A2D1F",
"z 	c #B08B58",
"A 	c #B8845A",
"B 	c #EC9E76",
"C 	c #F0AB82",
"D 	c #EFB080",
"E 	c #7C5143",
"F 	c #FFCFAB",
"G 	c #D5997D",
"H 	c #DF9968",
"I 	c #B2644D",
"J 	c #582833",
"K 	c #63313F",
"L 	c #6D3543",
"M 	c #6C3543",
"N 	c #49212E",
"O 	c #2D101F",
"P 	c #341424",
"Q 	c #30161E",
"R 	c #30111C",
"S 	c #4D2029",
"T 	c #4F2C4A",
"U 	c #3B141B",
"V 	c #682A3A",
"W 	c #642434",
"X 	c #AD8E57",
"Y 	c #9F8153",
"Z 	c #604E33",
"` 	c #281C14",
" .	c #1F1811",
"..	c #5E472F",
"+.	c #876943",
"@.	c #1E180E",
"#.	c #AC3C28",
"$.	c #F4A77A",
"%.	c #F4B686",
"&.	c #F6BC88",
"*.	c #9A6E5B",
"=.	c #FFE4C2",
"-.	c #BF855C",
";.	c #E5B178",
">.	c #BD895B",
",.	c #673A3E",
"'.	c #66525C",
").	c #52373F",
"!.	c #573E47",
"~.	c #736069",
"{.	c #4B2635",
"].	c #562C38",
"^.	c #542935",
"/.	c #44222E",
"(.	c #412027",
"_.	c #4D2E31",
":.	c #4C232B",
"<.	c #AB6E67",
"[.	c #BD8074",
"}.	c #61362E",
"|.	c #2F271C",
"1.	c #8A6E49",
"2.	c #6E563C",
"3.	c #30231B",
"4.	c #57362A",
"5.	c #694A34",
"6.	c #5C3829",
"7.	c #D42213",
"8.	c #EB7251",
"9.	c #F5C08E",
"0.	c #F5CA90",
"a.	c #A47F67",
"b.	c #CFB49F",
"c.	c #FCE2A7",
"d.	c #F8D08F",
"e.	c #9B6951",
"f.	c #432A2E",
"g.	c #6D6869",
"h.	c #767173",
"i.	c #53454C",
"j.	c #452E33",
"k.	c #B1A99B",
"l.	c #513836",
"m.	c #E8D2C7",
"n.	c #614340",
"o.	c #FFC8BF",
"p.	c #774A44",
"q.	c #E6A79B",
"r.	c #643535",
"s.	c #C7806E",
"t.	c #995450",
"u.	c #583334",
"v.	c #664A33",
"w.	c #4B3424",
"x.	c #3D2F20",
"y.	c #403723",
"z.	c #7B1C1E",
"A.	c #BB2824",
"B.	c #F4A477",
"C.	c #F2321D",
"D.	c #D64531",
"E.	c #F7D39C",
"F.	c #ECD396",
"G.	c #AA9770",
"H.	c #8E7467",
"I.	c #FFFEC0",
"J.	c #D4B071",
"K.	c #8E6950",
"L.	c #3A2B34",
"M.	c #51494C",
"N.	c #1E1621",
"O.	c #ACA697",
"P.	c #D6C0B3",
"Q.	c #816D66",
"R.	c #E2C7AC",
"S.	c #CAAF9E",
"T.	c #C69886",
"U.	c #80504C",
"V.	c #603735",
"W.	c #553138",
"X.	c #472732",
"Y.	c #864642",
"Z.	c #673041",
"`.	c #783A42",
" +	c #73313B",
".+	c #792F31",
"++	c #423627",
"@+	c #423825",
"#+	c #750F13",
"$+	c #C31C0E",
"%+	c #F18658",
"&+	c #F62313",
"*+	c #E6915E",
"=+	c #F2E29F",
"-+	c #EEC991",
";+	c #F8DCA2",
">+	c #282623",
",+	c #EDD497",
"'+	c #D1A476",
")+	c #1C1410",
"!+	c #C7CAC0",
"~+	c #3F353C",
"{+	c #FEFBE5",
"]+	c #A79D8E",
"^+	c #EEE5C4",
"/+	c #A78976",
"(+	c #B1907B",
"_+	c #5B4B44",
":+	c #483C33",
"<+	c #51342C",
"[+	c #535E65",
"}+	c #7B655B",
"|+	c #76544B",
"1+	c #C5886F",
"2+	c #7E4C49",
"3+	c #AA7A60",
"4+	c #6A303B",
"5+	c #58182B",
"6+	c #4E3C29",
"7+	c #312F1E",
"8+	c #AC1217",
"9+	c #DE1511",
"0+	c #CC1E09",
"a+	c #DC4F34",
"b+	c #E13115",
"c+	c #E28153",
"d+	c #ECA677",
"e+	c #F9F9AF",
"f+	c #877B5E",
"g+	c #765949",
"h+	c #150F18",
"i+	c #595B63",
"j+	c #BBC3BC",
"k+	c #9F9487",
"l+	c #FDFFDD",
"m+	c #E4DCB8",
"n+	c #805A41",
"o+	c #583F38",
"p+	c #5E463C",
"q+	c #595A4D",
"r+	c #957061",
"s+	c #6A9D99",
"t+	c #494041",
"u+	c #766158",
"v+	c #301C27",
"w+	c #472533",
"x+	c #411E2C",
"y+	c #531F2D",
"z+	c #522332",
"A+	c #B59178",
"B+	c #3C2E20",
"C+	c #242819",
"D+	c #D3020A",
"E+	c #F44137",
"F+	c #F3D79E",
"G+	c #C7BF83",
"H+	c #8E875E",
"I+	c #A17F55",
"J+	c #F6FFB0",
"K+	c #F0F6B1",
"L+	c #B2B589",
"M+	c #272726",
"N+	c #AEB395",
"O+	c #B1BFA3",
"P+	c #4E585D",
"Q+	c #90857A",
"R+	c #BB8564",
"S+	c #B37A50",
"T+	c #61463E",
"U+	c #878377",
"V+	c #5D5C5A",
"W+	c #1D424E",
"X+	c #1391A5",
"Y+	c #161A23",
"Z+	c #351E35",
"`+	c #421E34",
" @	c #3D242F",
".@	c #371D29",
"+@	c #481C2C",
"@@	c #53324A",
"#@	c #3F233D",
"$@	c #E6B892",
"%@	c #3B2D1D",
"&@	c #262518",
"*@	c #D71D23",
"=@	c #F4CF9A",
"-@	c #C3AC7C",
";@	c #8F7D73",
">@	c #BBAD94",
",@	c #706863",
"'@	c #3F373F",
")@	c #2C2834",
"!@	c #474040",
"~@	c #8F958B",
"{@	c #7B827A",
"]@	c #5D6B72",
"^@	c #749194",
"/@	c #4D534D",
"(@	c #B07D5B",
"_@	c #D09774",
":@	c #295E78",
"<@	c #2E6371",
"[@	c #8CE4EB",
"}@	c #1EB7BC",
"|@	c #1D2837",
"1@	c #372F47",
"2@	c #41262F",
"3@	c #422D2E",
"4@	c #644743",
"5@	c #4A3C3B",
"6@	c #391F22",
"7@	c #463448",
"8@	c #58384C",
"9@	c #B38D72",
"0@	c #442F26",
"a@	c #14130A",
"b@	c #E89171",
"c@	c #ECCC95",
"d@	c #6F4D52",
"e@	c #A88787",
"f@	c #A2A7A0",
"g@	c #797586",
"h@	c #55504F",
"i@	c #454245",
"j@	c #565759",
"k@	c #53595C",
"l@	c #576263",
"m@	c #849194",
"n@	c #58656B",
"o@	c #423F45",
"p@	c #201D16",
"q@	c #163B4E",
"r@	c #1AA4BA",
"s@	c #C4FBF9",
"t@	c #61C9CD",
"u@	c #245E72",
"v@	c #413C46",
"w@	c #512B34",
"x@	c #442830",
"y@	c #3D242B",
"z@	c #604443",
"A@	c #51413F",
"B@	c #37242D",
"C@	c #504151",
"D@	c #4B2F43",
"E@	c #4F313E",
"F@	c #402B22",
"G@	c #1E140E",
"H@	c #ECC190",
"I@	c #785B4D",
"J@	c #B87B83",
"K@	c #564A56",
"L@	c #A2A8A3",
"M@	c #A6A9A2",
"N@	c #BEC3A8",
"O@	c #C6CAAF",
"P@	c #2D2A30",
"Q@	c #636166",
"R@	c #545B5D",
"S@	c #71727A",
"T@	c #645A68",
"U@	c #6E7884",
"V@	c #161722",
"W@	c #174F65",
"X@	c #0F607C",
"Y@	c #153D55",
"Z@	c #35869C",
"`@	c #355964",
" #	c #704A4C",
".#	c #914245",
"+#	c #3F262F",
"@#	c #3F282F",
"##	c #2F282E",
"$#	c #524140",
"%#	c #312120",
"&#	c #382229",
"*#	c #503C53",
"=#	c #5B3D57",
"-#	c #2C1C15",
";#	c #21160C",
">#	c #D8BA89",
",#	c #7B4349",
"'#	c #3D2930",
")#	c #07070C",
"!#	c #382A3B",
"~#	c #3C353B",
"{#	c #272928",
"]#	c #AEB6B6",
"^#	c #5B5962",
"/#	c #786775",
"(#	c #4A3F43",
"_#	c #60585F",
":#	c #50424A",
"<#	c #6A535A",
"[#	c #6F4E5F",
"}#	c #533648",
"|#	c #2E4757",
"1#	c #3C4852",
"2#	c #495259",
"3#	c #5B5056",
"4#	c #7A494E",
"5#	c #84303D",
"6#	c #562A3D",
"7#	c #31242B",
"8#	c #342930",
"9#	c #514041",
"0#	c #453131",
"a#	c #4D454D",
"b#	c #4D3A4E",
"c#	c #593B56",
"d#	c #342419",
"e#	c #20140D",
"f#	c #E1C68E",
"g#	c #72242F",
"h#	c #94394A",
"i#	c #2D1119",
"j#	c #823A53",
"k#	c #080307",
"l#	c #060509",
"m#	c #2C2D35",
"n#	c #706F79",
"o#	c #5B3545",
"p#	c #61313B",
"q#	c #352D35",
"r#	c #332B33",
"s#	c #644A56",
"t#	c #614452",
"u#	c #864850",
"v#	c #6A4C56",
"w#	c #443B43",
"x#	c #584C52",
"y#	c #89646C",
"z#	c #873943",
"A#	c #9E444C",
"B#	c #251327",
"C#	c #4D383F",
"D#	c #332B30",
"E#	c #4C3D3C",
"F#	c #3F2E2E",
"G#	c #453A40",
"H#	c #705C6E",
"I#	c #745775",
"J#	c #3C2819",
"K#	c #241710",
"L#	c #E5CA91",
"M#	c #DED89E",
"N#	c #342626",
"O#	c #852E3D",
"P#	c #C64864",
"Q#	c #3C1525",
"R#	c #000004",
"S#	c #22212D",
"T#	c #51414A",
"U#	c #5B324B",
"V#	c #682530",
"W#	c #85474A",
"X#	c #4B2D34",
"Y#	c #4D2C39",
"Z#	c #894943",
"`#	c #AC414B",
" $	c #AB5558",
".$	c #B14E4A",
"+$	c #886A6F",
"@$	c #B65D64",
"#$	c #662C3F",
"$$	c #5A3742",
"%$	c #9F5351",
"&$	c #1B121D",
"*$	c #4E313D",
"=$	c #432E33",
"-$	c #563F40",
";$	c #351A1E",
">$	c #6E707E",
",$	c #73597A",
"'$	c #493124",
")$	c #251911",
"!$	c #D9B583",
"~$	c #E6DFA5",
"{$	c #A49C94",
"]$	c #211823",
"^$	c #0E0714",
"/$	c #4B2B39",
"($	c #713A4F",
"_$	c #9F3046",
":$	c #B47B8A",
"<$	c #983349",
"[$	c #943646",
"}$	c #BB5C68",
"|$	c #9D4950",
"1$	c #76293A",
"2$	c #B35D35",
"3$	c #B5384A",
"4$	c #B63C46",
"5$	c #9F3442",
"6$	c #812A36",
"7$	c #682839",
"8$	c #5E4159",
"9$	c #613B4C",
"0$	c #894851",
"a$	c #B46C58",
"b$	c #8E6447",
"c$	c #63413B",
"d$	c #603B3F",
"e$	c #38222A",
"f$	c #503A43",
"g$	c #41283D",
"h$	c #4E3A28",
"i$	c #272015",
"j$	c #D79474",
"k$	c #515049",
"l$	c #755052",
"m$	c #4C3341",
"n$	c #969375",
"o$	c #94928B",
"p$	c #1B121B",
"q$	c #31181D",
"r$	c #38121B",
"s$	c #AE2938",
"t$	c #CA2E3C",
"u$	c #BD2D3E",
"v$	c #8B1D2A",
"w$	c #5B2B0F",
"x$	c #603112",
"y$	c #301824",
"z$	c #3E1C2E",
"A$	c #381B2A",
"B$	c #C5373D",
"C$	c #8B3449",
"D$	c #A5484D",
"E$	c #714451",
"F$	c #8A5452",
"G$	c #794F53",
"H$	c #533A42",
"I$	c #825755",
"J$	c #432C2D",
"K$	c #3B1A21",
"L$	c #482437",
"M$	c #5F476B",
"N$	c #5B442C",
"O$	c #2E291A",
"P$	c #BA4C43",
"Q$	c #796B67",
"R$	c #602D37",
"S$	c #562224",
"T$	c #EBECB0",
"U$	c #A4A09B",
"V$	c #545E6F",
"W$	c #B19A72",
"X$	c #502E34",
"Y$	c #381D1F",
"Z$	c #260F1B",
"`$	c #291415",
" %	c #6C2A22",
".%	c #BB4E12",
"+%	c #241429",
"@%	c #3F2638",
"#%	c #482942",
"$%	c #321E1F",
"%%	c #402223",
"&%	c #BC2E3D",
"*%	c #B45254",
"=%	c #B55E61",
"-%	c #A26366",
";%	c #BD7253",
">%	c #B5755C",
",%	c #593A3F",
"'%	c #52383D",
")%	c #3D232B",
"!%	c #6C6173",
"~%	c #62482F",
"{%	c #26261A",
"]%	c #BE1313",
"^%	c #975056",
"/%	c #4A0B11",
"(%	c #EFF5B0",
"_%	c #D8D894",
":%	c #958682",
"<%	c #5A3A54",
"[%	c #D8A57A",
"}%	c #A57973",
"|%	c #7B4F46",
"1%	c #962C1B",
"2%	c #C23C1F",
"3%	c #752721",
"4%	c #702B12",
"5%	c #39243C",
"6%	c #432334",
"7%	c #21121A",
"8%	c #E0E3B4",
"9%	c #1E1119",
"0%	c #883F39",
"a%	c #B45452",
"b%	c #AF6F4E",
"c%	c #864D59",
"d%	c #F2A561",
"e%	c #3B1F2C",
"f%	c #503742",
"g%	c #4D3A3D",
"h%	c #453843",
"i%	c #5A4458",
"j%	c #402741",
"k%	c #73583D",
"l%	c #222216",
"m%	c #CE2520",
"n%	c #822F30",
"o%	c #CF5749",
"p%	c #DF9B77",
"q%	c #A66E55",
"r%	c #896466",
"s%	c #AC2B34",
"t%	c #C1413A",
"u%	c #A3877D",
"v%	c #7E4A3A",
"w%	c #CB4118",
"x%	c #933325",
"y%	c #5E2525",
"z%	c #632714",
"A%	c #3E2137",
"B%	c #2F1915",
"C%	c #DCDEB5",
"D%	c #1D111D",
"E%	c #4C1B2A",
"F%	c #300E1A",
"G%	c #823F46",
"H%	c #5C3433",
"I%	c #B97C58",
"J%	c #B2735C",
"K%	c #302129",
"L%	c #4F3D3F",
"M%	c #473236",
"N%	c #432A32",
"O%	c #4A1723",
"P%	c #35132D",
"Q%	c #71553B",
"R%	c #272A1A",
"S%	c #B5291B",
"T%	c #D0221E",
"U%	c #EC1212",
"V%	c #F70B10",
"W%	c #E81011",
"X%	c #AC7476",
"Y%	c #CF3328",
"Z%	c #D13A26",
"`%	c #7F6D63",
" &	c #8F2A1A",
".&	c #9C2F1A",
"+&	c #4D2022",
"@&	c #130D1A",
"#&	c #953914",
"$&	c #321B2B",
"%&	c #583835",
"&&	c #531523",
"*&	c #392030",
"=&	c #6F1925",
"-&	c #5D1C26",
";&	c #7B453F",
">&	c #734A3A",
",&	c #3C2C27",
"'&	c #A97066",
")&	c #2D2327",
"!&	c #2E2126",
"~&	c #4A2E32",
"{&	c #3D1C23",
"]&	c #3F121E",
"^&	c #4E3654",
"/&	c #614835",
"(&	c #181E13",
"_&	c #B41811",
":&	c #E02C1E",
"<&	c #E72F24",
"[&	c #E73725",
"}&	c #E34128",
"|&	c #C65431",
"1&	c #F45E1B",
"2&	c #FC7527",
"3&	c #903A32",
"4&	c #BF331B",
"5&	c #704247",
"6&	c #D8848C",
"7&	c #100311",
"8&	c #B34E23",
"9&	c #2B233B",
"0&	c #610F15",
"a&	c #211828",
"b&	c #4B1320",
"c&	c #9B323E",
"d&	c #A3333C",
"e&	c #532C2D",
"f&	c #825741",
"g&	c #351924",
"h&	c #634243",
"i&	c #493D37",
"j&	c #2F2025",
"k&	c #563A37",
"l&	c #3F1C20",
"m&	c #583E56",
"n&	c #442740",
"o&	c #5A4130",
"p&	c #23281A",
"q&	c #CF1605",
"r&	c #F32C10",
"s&	c #F32C14",
"t&	c #E84C18",
"u&	c #F0701C",
"v&	c #FA7217",
"w&	c #FA7D1B",
"x&	c #E04D17",
"y&	c #BC2916",
"z&	c #995133",
"A&	c #B17479",
"B&	c #543D34",
"C&	c #6C6C52",
"D&	c #AC3D17",
"E&	c #17243B",
"F&	c #751E2B",
"G&	c #20111D",
"H&	c #7B1E29",
"I&	c #7B2631",
"J&	c #C86055",
"K&	c #B06253",
"L&	c #5B4033",
"M&	c #8B5650",
"N&	c #3F2F37",
"O&	c #503E3D",
"P&	c #523833",
"Q&	c #573737",
"R&	c #3D1A22",
"S&	c #48283C",
"T&	c #724B6A",
"U&	c #503B28",
"V&	c #26291C",
"W&	c #C30F04",
"X&	c #E9340B",
"Y&	c #E9601B",
"Z&	c #EF7B1E",
"`&	c #F5821C",
" *	c #F74D11",
".*	c #EE7322",
"+*	c #C12314",
"@*	c #983D28",
"#*	c #7F5840",
"$*	c #534944",
"%*	c #BEBD94",
"&*	c #B54216",
"**	c #CC0F14",
"=*	c #B52732",
"-*	c #AA1F2F",
";*	c #2A1820",
">*	c #811C2C",
",*	c #8E2E39",
"'*	c #C97060",
")*	c #AF7658",
"!*	c #54373A",
"~*	c #966A51",
"{*	c #5C4C42",
"]*	c #62423B",
"^*	c #58393D",
"/*	c #5B3838",
"(*	c #401B21",
"_*	c #411A2B",
":*	c #816586",
"<*	c #271D10",
"[*	c #322A21",
"}*	c #AF4B08",
"|*	c #EA711E",
"1*	c #E85B15",
"2*	c #F7861C",
"3*	c #F95D12",
"4*	c #F76416",
"5*	c #DE4212",
"6*	c #C04531",
"7*	c #CD6D66",
"8*	c #3A171C",
"9*	c #F36756",
"0*	c #AB1D17",
"a*	c #D41F19",
"b*	c #3B0F15",
"c*	c #1D283F",
"d*	c #55313B",
"e*	c #4E3334",
"f*	c #90292B",
"g*	c #A03239",
"h*	c #A45D51",
"i*	c #B38362",
"j*	c #83544A",
"k*	c #A57653",
"l*	c #603C3C",
"m*	c #8F483D",
"n*	c #5C3E39",
"o*	c #613C3A",
"p*	c #431B20",
"q*	c #491F33",
"r*	c #815F84",
"s*	c #392B1C",
"t*	c #403C22",
"u*	c #951102",
"v*	c #E8400A",
"w*	c #FA8F1D",
"x*	c #F95B13",
"y*	c #F4721E",
"z*	c #F9520E",
"A*	c #F05726",
"B*	c #773B3B",
"C*	c #605039",
"D*	c #B24138",
"E*	c #858B72",
"F*	c #C43B19",
"G*	c #CE1C19",
"H*	c #25253C",
"I*	c #1B151B",
"J*	c #9B5760",
"K*	c #553D3C",
"L*	c #873435",
"M*	c #BC4F48",
"N*	c #693736",
"O*	c #956454",
"P*	c #583A37",
"Q*	c #483539",
"R*	c #6D483F",
"S*	c #835043",
"T*	c #9E5B49",
"U*	c #974F44",
"V*	c #471822",
"W*	c #491420",
"X*	c #522C4A",
"Y*	c #4A3923",
"Z*	c #433E22",
"`*	c #7E2E10",
" =	c #FF9620",
".=	c #FA691C",
"+=	c #E94713",
"@=	c #F4611D",
"#=	c #F6520B",
"$=	c #E95525",
"%=	c #9D6C6C",
"&=	c #444E40",
"*=	c #E58469",
"==	c #893638",
"-=	c #CC601F",
";=	c #D41818",
">=	c #29222D",
",=	c #3B2A2A",
"'=	c #936E78",
")=	c #554F51",
"!=	c #522A29",
"~=	c #AE4E48",
"{=	c #B16751",
"]=	c #975E4E",
"^=	c #96584C",
"/=	c #66433A",
"(=	c #8A5244",
"_=	c #975849",
":=	c #9F5646",
"<=	c #703B36",
"[=	c #4C1720",
"}=	c #5C3247",
"|=	c #6C3E5C",
"1=	c #45361F",
"2=	c #3C301A",
"3=	c #1B1A1C",
"4=	c #503421",
"5=	c #7C351D",
"6=	c #F37620",
"7=	c #D92915",
"8=	c #F95B0B",
"9=	c #F55D20",
"0=	c #26181F",
"a=	c #F9F6BD",
"b=	c #EBEDB4",
"c=	c #371C21",
"d=	c #CF6520",
"e=	c #DB211A",
"f=	c #3C1114",
"g=	c #695159",
"h=	c #603B39",
"i=	c #3F2B30",
"j=	c #663739",
"k=	c #C18257",
"l=	c #8B4A49",
"m=	c #673F3D",
"n=	c #7B4A40",
"o=	c #864F45",
"p=	c #965247",
"q=	c #6E3A39",
"r=	c #481D20",
"s=	c #431719",
"t=	c #421520",
"u=	c #2A141F",
"v=	c #3F3021",
"w=	c #312719",
"x=	c #59492B",
"y=	c #4C3C26",
"z=	c #84442D",
"A=	c #CB1A15",
"B=	c #F9460C",
"C=	c #FF681C",
"D=	c #BA7C53",
"E=	c #EDE7AC",
"F=	c #DFD7A4",
"G=	c #71373D",
"H=	c #DA611B",
"I=	c #D11E13",
"J=	c #531416",
"K=	c #9A5E69",
"L=	c #6E6B72",
"M=	c #524449",
"N=	c #473436",
"O=	c #3B2226",
"P=	c #4F2729",
"Q=	c #47252C",
"R=	c #512D34",
"S=	c #8E5047",
"T=	c #9E5347",
"U=	c #A15549",
"V=	c #542527",
"W=	c #481C21",
"X=	c #6E5139",
"Y=	c #51412A",
"Z=	c #3C2C1E",
"`=	c #0C0A06",
" -	c #635032",
".-	c #695532",
"+-	c #A58B50",
"@-	c #B19C58",
"#-	c #CB100F",
"$-	c #F31A07",
"%-	c #E84D14",
"&-	c #F66320",
"*-	c #EF7D46",
"=-	c #CF8C5B",
"--	c #C3501A",
";-	c #DF3214",
">-	c #B22122",
",-	c #601D24",
"'-	c #865B67",
")-	c #7E7687",
"!-	c #362625",
"~-	c #4F3239",
"{-	c #542A37",
"]-	c #673435",
"^-	c #562C37",
"/-	c #603341",
"(-	c #874841",
"_-	c #994D45",
":-	c #562526",
"<-	c #401924",
"[-	c #AB8958",
"}-	c #826744",
"|-	c #775F3E",
"1-	c #513E2B",
"2-	c #72533B",
"3-	c #A78657",
"4-	c #9D8450",
"5-	c #9A7F4C",
"6-	c #D5070E",
"7-	c #D01A1A",
"8-	c #EB100F",
"9-	c #F7220F",
"0-	c #FF4B1F",
"a-	c #FF4F22",
"b-	c #E12918",
"c-	c #CB1A17",
"d-	c #AE1F26",
"e-	c #512631",
"f-	c #5E2D41",
"g-	c #763347",
"h-	c #5A2F41",
"i-	c #6A4A4C",
"j-	c #3E1B20",
"k-	c #4F1F26",
"l-	c #5E2530",
"m-	c #773640",
"n-	c #6C3435",
"o-	c #481621",
"p-	c #49141E",
"q-	c #410716",
"r-	c #795640",
"s-	c #6C5636",
"t-	c #BB9861",
"u-	c #806445",
"v-	c #020202",
"w-	c #020201",
"x-	c #302417",
"y-	c #27180F",
"z-	c #2F1F15",
"A-	c #3E2A1E",
"B-	c #41231A",
"C-	c #312113",
"D-	c #2C2515",
"E-	c #2D2116",
"F-	c #361E14",
"G-	c #2C1C14",
"H-	c #291B11",
"I-	c #261813",
"J-	c #32211A",
"K-	c #38251C",
"L-	c #32271F",
"M-	c #311F19",
"N-	c #3E2B20",
"O-	c #533D30",
"P-	c #47282A",
"Q-	c #452725",
"R-	c #412221",
"S-	c #2F1815",
"T-	c #2D1F14",
"U-	c #302218",
"V-	c #3A291E",
"W-	c #2C2019",
"X-	c #2F2016",
"Y-	c #362720",
"Z-	c #100905",
"  . + @ # $ % & * = - ; > , ' ) ! ~ { ] ] ^ / ( _ : < [ } | 1 2 ",
". 3 4 5 6 7 8 9 0 a b c d e f g h i j k l m n o p q r s t u v . ",
"w x y z A B C D E F G H I J K L M N O P Q R S T U V W X Y Z `  .",
". ..+.@.#.$.%.&.*.=.-.;.>.,.'.).!.~.{.].^./.(._.:.<.[.}.|.1.2.. ",
"3.4.5.6.7.8.9.0.a.b.c.d.e.f.g.h.i.j.k.l.m.n.o.p.q.r.s.t.u.v.w.x.",
"y.z.A.B.C.D.E.F.G.H.I.J.K.L.M.N.O.P.Q.R.S.T.U.V.W.X.Y.Z.`. +.+++",
"@+#+$+%+&+*+=+-+;+>+,+'+)+!+~+{+]+^+/+(+_+:+<+[+}+|+1+2+3+4+5+6+",
"7+8+9+0+a+b+c+d+e+f+g+h+i+j+k+l+m+n+o+p+q+r+s+t+u+v+w+x+y+z+A+B+",
"C+D+E+F+G+H+I+J+K+L+M+N+O+P+Q+R+S+T+U+V+W+X+Y+Z+`+ @.@+@@@#@$@%@",
"&@*@=@-@;@>@,@'@)@!@~@{@]@^@/@(@_@:@<@[@}@|@1@2@3@4@5@6@7@8@9@0@",
"a@b@c@d@e@f@g@h@i@j@k@l@m@n@o@p@q@r@s@t@u@v@w@x@y@z@A@B@C@D@E@F@",
"G@H@I@J@K@L@M@N@O@P@Q@R@S@T@U@V@W@X@Y@Z@`@ #.#+#@###$#%#&#*#=#-#",
";#>#,#'#)#!#~#{#]#^#/#(#_#:#<#[#}#|#1#2#3#4#5#6#7#8#9#0#a#b#c#d#",
"e#f#g#h#i#j#k#l#m#n#o#p#q#r#s#t#u#v#w#x#y#z#A#B#C#D#E#F#G#H#I#J#",
"K#L#M#N#O#P#Q#R#S#T#U#V#W#X#Y#Z#`# $.$+$@$#$$$%$&$*$=$-$;$>$,$'$",
")$!$~${$]$^$/$($_$:$<$[$}$|$1$2$3$4$5$6$7$8$9$0$a$b$c$d$e$f$g$h$",
"i$j$k$l$m$n$o$p$q$r$s$t$u$v$w$x$y$z$A$B$C$D$E$F$G$H$I$J$K$L$M$N$",
"O$P$Q$R$S$T$U$V$W$X$Y$Z$`$ %.%+%@%#%$%%%&%*%=%-%;%>%,%'%)%!%,$~%",
"{%]%^%/%(%_%:%<%[%}%|%1%2%3%4%5%6%7%8%9%0%a%b%c%d%e%f%g%h%i%j%k%",
"l%m%n%o%p%q%r%s%t%u%v%w%x%y%z%A%B%C%D%E%F%G%H%I%J%K%L%M%N%O%P%Q%",
"R%S%T%U%V%W%X%Y%Z%`% &.&+&@&#&$&%&&&*&=&-&;&>&,&'&)&!&~&{&]&^&/&",
"(&_&:&<&[&}&|&1&2&3&4&5&6&7&8&9&0&a&b&c&d&e&f&g&h&i&j&k&l&m&n&o&",
"p&q&r&s&t&u&v&w&x&y&z&A&B&C&D&E&F&G&H&I&J&K&L&M&N&O&P&Q&R&S&T&U&",
"V&W&X&Y&Z&`& *.*+*@*#*$*%*&***=*-*;*>*,*'*)*!*~*{*]*^*/*(*_*:*<*",
"[*}*|*1*2*3*4*5*6*7*8*9*0*a*b*c*d*e*f*g*h*i*j*k*l*m*n*o*p*q*r*s*",
"t*u*v*w*x*y*z*A*B*C*D*E*F*G*H*I*J*K*L*M*N*O*P*Q*R*S*T*U*V*W*X*Y*",
"Z*`* =.=+=@=#=$=%=&=*===-=;=>=,='=)=!=~={=]=^=/=(=_=:=<=[=}=|=1=",
"2=3=4=5=6=7=8=9=0=a=b=c=d=e=f=g=h=$#i=j=k=l=m=n=o=p=q=r=s=t=u=v=",
". w=x=y=z=A=B=C=D=E=F=G=H=I=J=K=L=M=N=O=P=Q=R=S=T=U=V=W=X=Y=Z=. ",
"`= -.-+-@-#-$-%-&-*-=---;->-,-'-)-!-~-{-]-^-/-(-_-:-<-[-}-|-1-* ",
". 2-3-4-5-6-7-8-9-0-a-b-c-d-e-f-g-h-i-j-k-l-m-n-o-p-q-r-s-t-u-. ",
"v-w-x-y-z-A-B-C-D-E-F-G-H-I-J-K-L-M-N-O-P-Q-R-S-T-U-V-W-X-Y-Z-v-"};
